# xmcd CD database file
#
# Track frame offsets:
#	187
#	16415
#	30872
#	46185
#	61940
#	73925
#	89502
#	104852
#	119355
#	136502
#	157085
#
# Disc length: 2294 seconds
#
# Revision: 0
# Processed by: cddbd v1.5.1PL0 Copyright (c) Steve Scherf et al.
# Submitted via: CDex 1.51
#
DISCID=9108f40b
DTITLE=The Singers Unlimited - A Cappella III
DYEAR=1900
DGENRE=A Cappella
TTITLE0=Anything Goes
TTITLE1=The Way We Were
TTITLE2=One More Time, Chick Corea
TTITLE3=Sweet Lorraine
TTITLE4=Jeanie With The Light Brown Hair
TTITLE5=Someone To Light Up My Life
TTITLE6=Love Is Here To Stay
TTITLE7=The Entertainer
TTITLE8=All The Things You Are
TTITLE9=Sometimes I Feel Like A Motherless Child
TTITLE10=I Wish You Love
EXTD=
EXTT0=
EXTT1=
EXTT2=
EXTT3=
EXTT4=
EXTT5=
EXTT6=
EXTT7=
EXTT8=
EXTT9=
EXTT10=
PLAYORDER=
